<svg xmlns="http://www.w3.org/2000/svg" width="30" height="30" viewBox="0 0 30 30">
    <g fill="#FFF" fill-rule="nonzero">
        <path d="M15 30C6.716 30 0 23.284 0 15 0 6.716 6.716 0 15 0c8.284 0 15 6.716 15 15 0 8.284-6.716 15-15 15zm0-28C7.82 2 2 7.82 2 15s5.82 13 13 13 13-5.82 13-13A13 13 0 0 0 15 2z"/>
        <path d="M14.53 14.26a35.91 35.91 0 0 1-13.2-2.83l.81-1.83c.16.07 16.17 7.07 24.29-2.16l1.5 1.32c-3.72 4.24-8.73 5.5-13.4 5.5zM4.56 24.09l-1.3-1.52c.59-.51 14.64-12.31 26.28-4.95l-1.07 1.69C18.08 12.74 4.69 24 4.56 24.09z"/>
        <path d="M15.32 29.63l-1.55-1.26c11.55-14.17.06-26.17-.44-26.67L14.76.3c.13.14 13.24 13.79.56 29.33z"/>
    </g>
</svg>
