<svg xmlns="http://www.w3.org/2000/svg" width="81" height="83" viewBox="0 0 81 83">
    <g fill="#1F3D91" fill-rule="nonzero">
        <path d="M28.217 44.251a4.873 4.873 0 0 0-.387 1.92 4.955 4.955 0 0 0 4.443 4.936c.476 2.245 2.49 3.893 4.833 3.893 1.297 0 2.462-.35 3.395-1.018.933.668 2.098 1.018 3.395 1.018 2.342 0 4.355-1.648 4.832-3.893a4.955 4.955 0 0 0 4.443-4.935c0-.671-.13-1.315-.387-1.92A5.306 5.306 0 0 0 55 39.958c0-.159-.01-.318-.023-.474l-.016-.14a4.674 4.674 0 0 0-.058-.371l-.018-.099a4.822 4.822 0 0 0-.108-.419l-.05-.155a5.176 5.176 0 0 0-.128-.344l-.037-.09a5.498 5.498 0 0 0-.188-.388l-.06-.107a4.26 4.26 0 0 0-.18-.292l-.068-.107a5.912 5.912 0 0 0-.289-.381 5.596 5.596 0 0 0-1.159-1.035l-.1-.064a4.893 4.893 0 0 0 .356-1.844c0-2.608-2.037-4.755-4.613-4.95A4.988 4.988 0 0 0 43.43 25a5.02 5.02 0 0 0-2.929.948A5.025 5.025 0 0 0 37.571 25a4.987 4.987 0 0 0-4.832 3.698c-2.576.196-4.613 2.343-4.613 4.95 0 .643.12 1.262.357 1.846a5.633 5.633 0 0 0-1.267 1.108c-.1.119-.193.243-.282.372l-.062.094a5.35 5.35 0 0 0-.198.327l-.048.085a5.55 5.55 0 0 0-.19.389l-.052.13c-.04.098-.077.199-.121.33l-.04.123a5.428 5.428 0 0 0-.11.425l-.017.093c-.024.124-.043.25-.059.385l-.013.126a5.074 5.074 0 0 0-.024.478c0 1.7.84 3.308 2.217 4.292zm13.314-2.175c.463.009.984.003 1.379-.02.11.36.274.765.514 1.094.325.442 1 .547 1.44.227a1.02 1.02 0 0 0 .227-1.43c-.395-.54-.478-2-.33-2.368a1.02 1.02 0 0 0-.573-1.332 1.048 1.048 0 0 0-1.34.57c-.125.31-.197.727-.21 1.203a18.96 18.96 0 0 1-1.109.008V27.74a2.94 2.94 0 0 1 4.657 1.24 4.954 4.954 0 0 0-2.133 1.47 1.02 1.02 0 0 0 .122 1.441c.413.35 1.098.298 1.455-.12a2.93 2.93 0 0 1 2.246-1.04c1.618 0 2.936 1.309 2.936 2.918 0 .387-.074.757-.222 1.109a5.26 5.26 0 0 0-3.077.378 5.292 5.292 0 0 0-1.543-.895 1.052 1.052 0 0 0-1.328.597 1.021 1.021 0 0 0 .601 1.319 3.223 3.223 0 0 1 2.084 2.64c.061.513.502.9 1.022.9l.123-.007a1.023 1.023 0 0 0 .9-1.138 5.2 5.2 0 0 0-.517-1.725c.662-.174 1.316-.155 2.113.159a3.387 3.387 0 0 1 .804.494c.066.056.13.114.219.2a3.431 3.431 0 0 1 .523.689l.051.093c.028.055.056.11.081.166l.427-.19-.383.284c.034.083.066.168.094.256l.446-.142-.417.244c.019.058.033.117.047.176l.456-.098-.434.207c.011.065.02.131.03.197l.011.097c.01.1.016.198.016.3 0 1.288-.769 2.454-1.96 2.969l-1.174.507.75 1.031c.364.5.556 1.089.556 1.706a2.916 2.916 0 0 1-2.395 2.864 4.954 4.954 0 0 0-1.463-2.54 4.851 4.851 0 0 0 .614-1.632 1.028 1.028 0 0 0-.834-1.189 1.028 1.028 0 0 0-1.195.83 2.884 2.884 0 0 1-2.239 2.291 1.02 1.02 0 0 0-.652.443 1.01 1.01 0 0 0-.146.77c.114.541.678.904 1.22.793A4.9 4.9 0 0 0 45.852 48c.583.538.922 1.299.922 2.094a2.873 2.873 0 0 1-2.878 2.857c-.939 0-1.77-.27-2.364-.762V42.076h-.001zm-13.792-3.13l.478.03a3.1 3.1 0 0 1 .093-.251l-.432-.179.476.083c.025-.056.052-.11.082-.168l.052-.094a3.357 3.357 0 0 1 1.025-1.099 3.41 3.41 0 0 1 .605-.313 3.242 3.242 0 0 1 1.203-.232c.924 0 1.73.38 2.311 1.082a5.34 5.34 0 0 0-1.457 1.404 1.021 1.021 0 0 0 .256 1.426c.45.311 1.12.192 1.434-.254a3.258 3.258 0 0 1 3.087-1.353l.136.01a1.03 1.03 0 0 0 1.02-.89 1.025 1.025 0 0 0-.887-1.15 5.363 5.363 0 0 0-1.613.035c-1.134-1.756-3.066-2.654-5.197-2.275a2.839 2.839 0 0 1-.222-1.11c0-1.608 1.317-2.917 2.936-2.917.118 0 .237.009.362.023l1.094.135.061-1.092a2.93 2.93 0 0 1 2.931-2.75c.69 0 1.371.252 1.898.693v4.645c-.318.135-.765.176-1.217.092-.755-.139-1.35-.554-1.593-1.11a1.055 1.055 0 0 0-1.355-.53 1.023 1.023 0 0 0-.535 1.347c.515 1.18 1.677 2.043 3.107 2.307.54.1 1.09.103 1.592.014V52.19c-.594.493-1.425.762-2.364.762-1.568 0-2.85-1.256-2.877-2.809v-.05c0-.736.277-1.37.802-1.836.528-.47 1.265-.73 2.076-.73.568 0 1.03-.46 1.03-1.024 0-.566-.462-1.025-1.03-1.025-.323 0-.645.028-.963.085a4.82 4.82 0 0 0-.486-2.243 1.058 1.058 0 0 0-1.377-.474c-.51.246-.724.859-.477 1.367a2.87 2.87 0 0 1 .063 2.343 4.35 4.35 0 0 0-1.575 2.48 2.915 2.915 0 0 1-2.4-2.865c0-.617.191-1.207.554-1.706l.75-1.03-1.174-.507a3.237 3.237 0 0 1-1.96-2.97c0-.1.007-.199.017-.296l-.466-.043.478-.057c.008-.065.018-.13.029-.19l.022-.114c.015-.063.032-.125.049-.188l-.452-.124zM1.67 42H13v-3H1.67C.747 39 0 39.67 0 40.5S.747 42 1.67 42zM68 42h11.33c.924 0 1.67-.67 1.67-1.5 0-.828-.746-1.5-1.67-1.5H68v3zM42 1.67C42 .75 41.328 0 40.5 0S39 .749 39 1.67V13h3V1.67z"/>
        <path d="M24.678 54.36c2.454 4.01 4.987 8.16 5.96 13.197h-.242c-.957 0-1.734.77-1.734 1.72 0 .953.777 1.723 1.734 1.723h20.21c.959 0 1.734-.77 1.734-1.723 0-.95-.775-1.72-1.734-1.72h-.239c.972-5.044 3.505-9.189 5.96-13.2C59.243 49.587 62 45.083 62 39.364 62 27.584 52.356 18 40.5 18S19 27.584 19 39.364c0 5.72 2.757 10.225 5.678 14.996zm15.823-33.59c10.318 0 18.713 8.34 18.713 18.594 0 4.944-2.56 9.127-5.27 13.557-2.598 4.246-5.284 8.636-6.337 14.218a1.376 1.376 0 0 0-.007.418H33.404c.017-.135.02-.276-.007-.418-1.051-5.577-3.739-9.97-6.34-14.22-2.71-4.428-5.27-8.61-5.27-13.555 0-10.253 8.396-18.594 18.714-18.594zM11.495 68.504c.66.661 1.731.661 2.39 0L22 60.39 19.609 58l-8.115 8.114a1.69 1.69 0 0 0 .001 2.39zM69.504 13.887a1.69 1.69 0 0 0 0-2.39 1.69 1.69 0 0 0-2.39-.002L59 19.608 61.391 22l8.113-8.113zM59 60.39l8.114 8.114c.66.662 1.73.66 2.39 0a1.69 1.69 0 0 0 0-2.39L61.392 58 59 60.39zM19.607 22L22 19.608l-8.113-8.113a1.689 1.689 0 0 0-2.39.001 1.69 1.69 0 0 0-.002 2.391L19.607 22zM52 75.498C52 74.67 51.247 74 50.316 74H30.684c-.93 0-1.684.67-1.684 1.498 0 .83.754 1.502 1.684 1.502h19.632c.931 0 1.684-.672 1.684-1.502zM34.736 80c-.958 0-1.736.671-1.736 1.498 0 .83.778 1.502 1.736 1.502h12.528c.96 0 1.736-.672 1.736-1.502 0-.827-.776-1.498-1.736-1.498H34.736z"/>
    </g>
</svg>
