<svg xmlns="http://www.w3.org/2000/svg" width="114" height="48" viewBox="0 0 114 48">
    <g fill="#3B9F95" fill-rule="nonzero">
        <path d="M113.448 43.898l-12.106-12.102a20.56 20.56 0 0 0 3.136-9.18h3.866a1.885 1.885 0 1 0 0-3.77h-3.866c-.896-9.844-8.623-17.685-18.455-18.73C76.19-.929 66.987 5.114 64.04 14.55a9.398 9.398 0 0 0-6.598-3.242 9.398 9.398 0 0 0-6.599 3.242C47.898 5.114 38.696-.93 28.863.116c-9.833 1.045-17.56 8.886-18.456 18.73H6.541a1.885 1.885 0 1 0 0 3.77h3.866a20.56 20.56 0 0 0 3.136 9.18L1.438 43.898a1.884 1.884 0 1 0 2.665 2.665l11.763-11.759a20.712 20.712 0 0 0 22.77 5.23 20.7 20.7 0 0 0 13.15-19.303 6.85 6.85 0 0 1 5.657-5.654 6.85 6.85 0 0 1 5.655 5.654A20.7 20.7 0 0 0 76.25 40.034a20.712 20.712 0 0 0 22.77-5.23l11.763 11.76a1.885 1.885 0 0 0 2.666-2.666zm-82.399-6.206c-9.37 0-16.967-7.594-16.967-16.961 0-9.368 7.596-16.962 16.967-16.962 9.37 0 16.967 7.594 16.967 16.962-.01 9.363-7.6 16.95-16.967 16.961zm52.787 0c-9.37 0-16.967-7.594-16.967-16.961 0-9.368 7.596-16.962 16.967-16.962 9.37 0 16.967 7.594 16.967 16.962-.01 9.363-7.6 16.95-16.967 16.961z"/>
        <path d="M31.05 30.154a9.39 9.39 0 0 1-9.296-7.851 1.885 1.885 0 0 0-3.72.623A13.15 13.15 0 0 0 31.05 33.923a1.885 1.885 0 1 0 0-3.77zM83.836 30.154a9.39 9.39 0 0 1-9.295-7.851 1.885 1.885 0 0 0-3.72.623 13.15 13.15 0 0 0 13.015 10.997 1.885 1.885 0 1 0 0-3.77z"/>
    </g>
</svg>
