<svg xmlns="http://www.w3.org/2000/svg" width="30" height="29" viewBox="0 0 30 29">
    <g fill="#FFF" fill-rule="nonzero">
        <path d="M.371 9.355h6.438V28.69H.371zM27.94 11.121c-1.353-1.476-3.142-2.215-5.366-2.215-.82 0-1.565.101-2.234.303-.67.202-1.236.484-1.698.849-.461.364-.83.702-1.102 1.014-.26.296-.513.642-.761 1.032v-2.75h-6.42l.02.938c.014.624.02 2.549.02 5.775 0 3.225-.013 7.433-.039 12.623h6.419V17.9c0-.663.071-1.19.214-1.58a4.144 4.144 0 0 1 1.24-1.668c.553-.45 1.238-.673 2.058-.673 1.118 0 1.941.386 2.468 1.16.527.774.79 1.844.79 3.21v10.34h6.42V17.608c-.001-2.849-.677-5.011-2.03-6.487zM3.629.048c-1.08 0-1.954.316-2.624.947C.335 1.625 0 2.422 0 3.385c0 .949.325 1.743.976 2.38.65.637 1.508.956 2.575.956h.039c1.093 0 1.974-.319 2.644-.956.67-.637.998-1.43.985-2.38-.013-.963-.345-1.76-.995-2.39C5.574.364 4.708.048 3.629.048z"/>
    </g>
</svg>
