<svg xmlns="http://www.w3.org/2000/svg" width="171" height="42" viewBox="0 0 171 42">
    <g fill="none" fill-rule="evenodd">
        <path fill="#00B421" fill-rule="nonzero" d="M64.587 35.048h17.685L81.07 42H55l7.24-42h8.385l-6.038 35.048zM104.077 0l5.123 30.375L124.74 0h11.16l-7.24 42h-8.414l2.06-11.971 4.064-18.692L110.402 42h-5.752l-5.58-31.73-2.69 20.682L94.463 42h-8.385l7.24-42h10.76zm32.08 42l7.24-42 11.962.029c2.805.058 5.328.697 7.57 1.918 2.241 1.221 4.058 2.976 5.451 5.265 1.393 2.288 2.232 4.865 2.518 7.73a25.72 25.72 0 0 1-.057 5.135l-.2 1.529c-.84 6.154-3.239 11.091-7.197 14.812-3.96 3.721-8.762 5.582-14.409 5.582h-12.878zM150.58 7.01l-4.836 28.038 3.491.029c3.854 0 6.95-1.423 9.286-4.27 2.338-2.845 3.678-7.144 4.021-12.894l.057-.923c.058-3.173-.543-5.605-1.802-7.298-1.26-1.692-3.139-2.577-5.638-2.654l-4.579-.028z"/>
        <g stroke="#00B421" stroke-linecap="round" stroke-width="8">
            <path d="M20.443 36.167H35.15M25.122 6.833H46.17M4 21.5h43.822"/>
        </g>
    </g>
</svg>
