<svg xmlns="http://www.w3.org/2000/svg" width="65" height="75" viewBox="0 0 65 75">
    <path fill="#B620E0" fill-rule="nonzero" d="M2.366 16.763l2.48 4.248 4.06 6.949a6.075 6.075 0 0 0-1.694 8.93 1.23 1.23 0 0 0-1.193 1.182 25.718 25.718 0 0 0 .285 4.763 107.822 107.822 0 0 0 5.168 20.184l1.789 4.824v5.928c0 .679.55 1.229 1.23 1.229h24.61c.68 0 1.231-.55 1.231-1.23v-4.917h9.844c.68 0 1.231-.55 1.231-1.23V52.87h7.383a1.23 1.23 0 0 0 1.201-1.498l-3.043-13.525a1.23 1.23 0 0 0-1.199-.96h-1.856a6.082 6.082 0 0 0 1.14-2.472l9.835-19.435a1.229 1.229 0 0 0-.544-1.652L57.32 9.788a1.231 1.231 0 0 0-1.654.544l-5.385 10.642a6.103 6.103 0 0 0-3.74-1.3c-.406.004-.81.051-1.206.14l2.938-5.828 1.099.553 1.107-2.196-.573-.289 3.603-3.182c.37-.325.509-.84.354-1.307L51.681.962A1.23 1.23 0 0 0 50.127.18l-6.61 2.178a1.23 1.23 0 0 0-.84 1.063l-.414 4.786-.575-.289-1.107 2.196 1.099.553-2.688 5.33a5.89 5.89 0 0 0-.995.106 6.07 6.07 0 0 0-3.76-2.444v-2.421a.379.379 0 0 1 .131-.298 6.12 6.12 0 0 0 0-9.607A6.192 6.192 0 0 0 29.084.171a6.127 6.127 0 1 0-2.372 10.762.418.418 0 0 1 .14.328v3.494c.002.194.027.387.075.574a5.763 5.763 0 0 0-3.938-.394l-.13-.78a13.794 13.794 0 0 0-3.465-12.127L17.86.39a1.231 1.231 0 0 0-2.092.556l-.545 2.275a12.366 12.366 0 0 1-1.049 2.816c-.026.05-.048.1-.066.152l-.302.84a8.295 8.295 0 0 0 1.803 8.5l.492 2.933c-.106 0-.211-.018-.318-.018a6.1 6.1 0 0 0-3.315.983l-1.243-2.13-2.486-4.25-1.858-3.185a3.694 3.694 0 0 0-5.049-1.33 3.687 3.687 0 0 0-1.33 5.045l1.863 3.186zm52.4 22.582l2.49 11.065h-7.077c-.68 0-1.23.55-1.23 1.23v14.754h-9.845c-.68 0-1.23.55-1.23 1.23v4.917h-22.15v-4.918c0-.146-.025-.29-.076-.428l-1.864-5.023a105.327 105.327 0 0 1-5.056-19.71 22.866 22.866 0 0 1-.267-3.117h46.304zm2.543-26.803l4.806 2.428-1.108 2.195-1.512-.765-1.107 2.195 1.51.763-1.107 2.195-2.252-1.142-1.107 2.195 2.243 1.133-1.107 2.195-1.513-.764-1.107 2.195 1.511.763-1.066 2.106c-.07-.122-.155-.245-.235-.368-.06-.091-.113-.188-.178-.277-.091-.123-.194-.237-.294-.354-.067-.078-.123-.16-.196-.234-.123-.135-.268-.258-.408-.382-.053-.047-.1-.098-.154-.144a6.26 6.26 0 0 0-.63-.455 5.955 5.955 0 0 0 .294-3.32c-.012-.062-.02-.122-.034-.188a5.93 5.93 0 0 0-.312-1c-.026-.064-.055-.123-.085-.19-.046-.105-.086-.212-.139-.316l5.287-10.464zM45.065 4.44l3.018-.996-1.437 2.84 2.198 1.107 1.43-2.84.998 3.015-3.734 3.297-2.907-1.465.434-4.958zm-1.181 7.334l2.199 1.106-2.528 4.998c-.007-.008-.018-.013-.026-.022a6.251 6.251 0 0 0-.877-.738l-.1-.068a6.178 6.178 0 0 0-1.045-.57l2.377-4.706zM26.969 5.207a3.665 3.665 0 0 1 3.583-2.747 3.64 3.64 0 0 1 2.287.798 3.662 3.662 0 0 1 0 5.756 2.767 2.767 0 0 0-.8 1.027l-2.783.695a2.827 2.827 0 0 0-1.009-1.721 3.64 3.64 0 0 1-1.278-3.808zm4.806 7.435v1.007c-.03.006-.057.016-.087.023a6.77 6.77 0 0 0-.381.102 4.763 4.763 0 0 0-.69.247c-.059.025-.123.05-.174.077a6.637 6.637 0 0 0-.474.245l-.099.058a5.89 5.89 0 0 0-.5.335l-.02.02-.015-1.504 2.44-.61zM16.122 7.858l.274-.764a14.847 14.847 0 0 0 1.22-3.302l.012-.054a11.346 11.346 0 0 1 2.935 9.357l-.362.06-.608-3.637-2.428.404.608 3.638-.573.096a5.851 5.851 0 0 1-1.078-5.798zm4.553 8.15a6.204 6.204 0 0 0-1.6 1.844c-.032.054-.066.107-.097.163a5.702 5.702 0 0 0-.246.534c-.028.066-.065.123-.091.196l-.462-2.76 2.427-.405.069.428zm-9.667 13.686c.191-.058.387-.103.584-.134.08-.012.16-.02.247-.025a2.21 2.21 0 0 1 .458 0l.194.025a1.23 1.23 0 0 0 .927-2.162 3.675 3.675 0 0 1-1.33-2.807c0-.231.024-.462.07-.688.035-.173.084-.342.146-.507.013-.042.023-.085.038-.123.166-.42.406-.806.709-1.14.006-.008.008-.017.013-.023a3.672 3.672 0 0 1 2.715-1.207c.458.005.91.1 1.333.276.012 0 .019.013.03.016.161.076.317.163.468.259a6.125 6.125 0 0 0-1.831 4.367h2.46a3.69 3.69 0 0 1 3.692-3.689v-2.459c-.345.006-.69.04-1.03.105.075-.24.175-.472.298-.691l.033-.062a3.742 3.742 0 0 1 1.39-1.334c.008 0 .013-.012.022-.016a3.627 3.627 0 0 1 4.74 1.085 1.231 1.231 0 0 0 2.16-.308 3.704 3.704 0 0 1 1.051-1.543c.13-.115.269-.22.414-.317l.022-.013c.148-.096.302-.181.463-.255.052-.024.108-.045.162-.066.14-.058.285-.105.432-.143.071-.018.143-.038.215-.053.231-.049.467-.075.703-.077a3.659 3.659 0 0 1 3.31 2.09c.277.574.948.84 1.544.615a3.725 3.725 0 0 1 1.628-.229c.033 0 .064.02.097.023a3.606 3.606 0 0 1 2.263 1.208c-.077 0-.15-.024-.229-.024a6.162 6.162 0 0 0-6.03 4.918 6.182 6.182 0 0 0-4.423 1.767 6.172 6.172 0 0 0-1.852 4.386h2.461a3.69 3.69 0 0 1 3.692-3.689c.316.006.63.052.934.14a1.231 1.231 0 0 0 1.544-1.239.396.396 0 0 0-.017-.13 3.69 3.69 0 0 1 3.691-3.689 3.657 3.657 0 0 1 1.55.353c.091.092.195.17.31.229.078.038.16.067.246.087a3.688 3.688 0 0 1 1.586 3.02h2.461a6.088 6.088 0 0 0-1.259-3.689h.029a3.692 3.692 0 0 1 3.052 1.62c.016.022.026.046.041.07.103.158.194.324.27.497.03.062.051.123.076.191.057.147.104.297.14.45.016.065.032.13.044.195.044.22.066.442.068.666a3.67 3.67 0 0 1-.632 2.064 1.229 1.229 0 0 0 .615 1.844 3.677 3.677 0 0 1 2.478 3.468 3.617 3.617 0 0 1-.068.637v.027a3.69 3.69 0 0 1-3.623 3.025H12.087A3.677 3.677 0 0 1 10.98 29.7c.006-.004.017-.003.028-.006zM9.713 19.597l.938 1.61c-.064.095-.107.203-.165.303-.1.171-.2.342-.283.52-.064.138-.123.28-.17.422a6.013 6.013 0 0 0-.213.679c-.024.103-.057.201-.077.307-.062.299-.1.602-.117.907l-2.044-3.504 2.131-1.244zm-2.48-4.248l1.24 2.123-2.125 1.24-1.24-2.125 2.126-1.238zm-4.16-4.692a1.231 1.231 0 0 1 1.683.443l1.239 2.125-2.127 1.238-1.239-2.124a1.229 1.229 0 0 1 .443-1.682z"/>
</svg>
