<svg xmlns="http://www.w3.org/2000/svg" width="30" height="25" viewBox="0 0 30 25">
    <path fill="#FFF" fill-rule="nonzero" d="M29.997 2.91c-1.18.508-2.36.825-3.54.952 1.332-.799 2.233-1.928 2.703-3.388a12.068 12.068 0 0 1-3.902 1.485C24.04.665 22.543.017 20.766.017c-1.7 0-3.15.6-4.35 1.799-1.199 1.2-1.798 2.649-1.798 4.349 0 .457.05.926.152 1.408A17.131 17.131 0 0 1 7.7 5.68a17.43 17.43 0 0 1-5.605-4.54 6.023 6.023 0 0 0-.838 3.102c0 1.054.247 2.03.742 2.932.495.9 1.162 1.63 2 2.189a6.099 6.099 0 0 1-2.78-.781v.076c0 1.485.467 2.788 1.4 3.912a6.048 6.048 0 0 0 3.53 2.122 6.37 6.37 0 0 1-1.618.21c-.355 0-.743-.033-1.161-.096.393 1.231 1.116 2.243 2.17 3.036a5.999 5.999 0 0 0 3.578 1.228c-2.233 1.75-4.777 2.626-7.632 2.626-.546 0-1.04-.025-1.485-.076 2.855 1.84 6.002 2.76 9.44 2.76 2.183 0 4.233-.346 6.148-1.037 1.916-.692 3.553-1.618 4.911-2.78a18.596 18.596 0 0 0 3.512-4.006 17.866 17.866 0 0 0 2.198-4.73 17.473 17.473 0 0 0 .704-5.738 12.875 12.875 0 0 0 3.084-3.179z"/>
</svg>
